<?xml version="1.0" encoding="UTF-8"?>
<svg xmlns="http://www.w3.org/2000/svg" viewBox="0 0 1920 1080" preserveAspectRatio="xMidYMid slice">
  <defs>
    <linearGradient id="bg-vida-barrio-cerrado" x1="0%" y1="0%" x2="100%" y2="100%">
      <stop offset="0%" stop-color="#5A4A2A"/>
      <stop offset="100%" stop-color="#8A7A4A"/>
    </linearGradient>
    <linearGradient id="overlay-vida-barrio-cerrado" x1="0%" y1="0%" x2="0%" y2="100%">
      <stop offset="0%" stop-color="#000" stop-opacity="0.08"/>
      <stop offset="60%" stop-color="#000" stop-opacity="0.18"/>
      <stop offset="100%" stop-color="#000" stop-opacity="0.45"/>
    </linearGradient>
  </defs>

  <rect width="1920" height="1080" fill="url(#bg-vida-barrio-cerrado)"/>
  <g><rect x="1180" y="680" width="100" height="50" fill="#F0E8D0" opacity="0.18" rx="3"/><rect x="1180" y="760" width="100" height="50" fill="#F0E8D0" opacity="0.12" rx="3"/><rect x="1180" y="840" width="100" height="50" fill="#F0E8D0" opacity="0.18" rx="3"/><rect x="1180" y="920" width="100" height="50" fill="#F0E8D0" opacity="0.12" rx="3"/><rect x="1310" y="680" width="100" height="50" fill="#F0E8D0" opacity="0.12" rx="3"/><rect x="1310" y="760" width="100" height="50" fill="#F0E8D0" opacity="0.18" rx="3"/><rect x="1310" y="840" width="100" height="50" fill="#F0E8D0" opacity="0.12" rx="3"/><rect x="1310" y="920" width="100" height="50" fill="#F0E8D0" opacity="0.18" rx="3"/><rect x="1440" y="680" width="100" height="50" fill="#F0E8D0" opacity="0.18" rx="3"/><rect x="1440" y="760" width="100" height="50" fill="#F0E8D0" opacity="0.12" rx="3"/><rect x="1440" y="840" width="100" height="50" fill="#F0E8D0" opacity="0.18" rx="3"/><rect x="1440" y="920" width="100" height="50" fill="#F0E8D0" opacity="0.12" rx="3"/><rect x="1570" y="680" width="100" height="50" fill="#F0E8D0" opacity="0.12" rx="3"/><rect x="1570" y="760" width="100" height="50" fill="#F0E8D0" opacity="0.18" rx="3"/><rect x="1570" y="840" width="100" height="50" fill="#F0E8D0" opacity="0.12" rx="3"/><rect x="1570" y="920" width="100" height="50" fill="#F0E8D0" opacity="0.18" rx="3"/><rect x="1700" y="680" width="100" height="50" fill="#F0E8D0" opacity="0.18" rx="3"/><rect x="1700" y="760" width="100" height="50" fill="#F0E8D0" opacity="0.12" rx="3"/><rect x="1700" y="840" width="100" height="50" fill="#F0E8D0" opacity="0.18" rx="3"/><rect x="1700" y="920" width="100" height="50" fill="#F0E8D0" opacity="0.12" rx="3"/><rect x="1830" y="680" width="100" height="50" fill="#F0E8D0" opacity="0.12" rx="3"/><rect x="1830" y="760" width="100" height="50" fill="#F0E8D0" opacity="0.18" rx="3"/><rect x="1830" y="840" width="100" height="50" fill="#F0E8D0" opacity="0.12" rx="3"/><rect x="1830" y="920" width="100" height="50" fill="#F0E8D0" opacity="0.18" rx="3"/></g>
  <rect width="1920" height="1080" fill="url(#overlay-vida-barrio-cerrado)"/>

  <g transform="translate(1620, 80)">
    <rect x="0" y="0" width="240" height="52" rx="4" fill="white" opacity="0.96"/>
    <text x="120" y="34" font-family="Raleway, system-ui, sans-serif" font-weight="700" font-size="18" fill="#1A5C38" letter-spacing="1.5" text-anchor="middle">SI INMOBILIARIA</text>
  </g>

  <rect x="120" y="400" width="216" height="44" rx="22" fill="#666666" opacity="0.96"/>
  <text x="228.0" y="430" font-family="Poppins, system-ui, sans-serif" font-weight="600" font-size="16" fill="white" letter-spacing="2.5" text-anchor="middle">EN DESARROLLO</text>

  <text x="120" y="600" font-family="Raleway, system-ui, sans-serif" font-weight="700" font-size="110" fill="white" letter-spacing="-2">Vida</text>
  <text x="120" y="685" font-family="Raleway, system-ui, sans-serif" font-weight="300" font-size="56" fill="white" opacity="0.92" letter-spacing="1.5">Barrio Cerrado</text>

  <line x1="120" y1="780" x2="200" y2="780" stroke="white" stroke-width="3" opacity="0.65"/>
  <text x="120" y="830" font-family="Poppins, system-ui, sans-serif" font-weight="500" font-size="30" fill="white" opacity="0.96">294 lotes · 35 hectáreas</text>
  <text x="120" y="875" font-family="Poppins, system-ui, sans-serif" font-weight="400" font-size="24" fill="white" opacity="0.78">Centro comercial propio en el ingreso</text>

  <text x="120" y="1005" font-family="Poppins, system-ui, sans-serif" font-weight="400" font-size="16" fill="white" opacity="0.55" letter-spacing="4">CORREDOR FUNES–ROLDÁN</text>
  <text x="120" y="1042" font-family="Poppins, system-ui, sans-serif" font-weight="300" font-size="13" fill="white" opacity="0.4" letter-spacing="1.5">FOTO PROVISORIA · REEMPLAZAR CON FOTO REAL DEL BARRIO</text>
</svg>